<svg xmlns="http://www.w3.org/2000/svg" xmlns:xlink="http://www.w3.org/1999/xlink" viewBox="0 0 1136 1024" width="29" height="29" style="border-color: rgba(0,0,0,0);border-width: bpx;border-style: undefined" filter="none">
    
    <g>
    <path d="M159.080742 0h536.150704c10.227342 0.924005 20.416712 3.290977 29.580816 8.050235 20.277478 10.151397 35.340025 29.859283 40.086626 51.997429 3.037824 13.961335 1.455624 28.340371 1.848009 42.49157 0.012658 145.904178-0.025315 291.821014 0.025316 437.725191-37.631051 21.492608-70.515501 51.288603-95.17251 86.957726-28.644153 41.137206-46.263535 89.894289-50.339283 139.879159-4.01246 46.769839 3.493498 94.514314 21.998913 137.689395 16.708035 39.327169 42.428282 74.717824 74.376069 103.070852-230.368356 0.037973-460.74937 0.025315-691.117726 0.012658-9.493201 0.113918-18.695278-5.670606-22.758368-14.227145-4.202324-8.404648-3.139085-19.138294 2.708727-26.517676 4.683313-6.164252 12.328504-9.910902 20.074956-9.860272 20.492658-0.012658 40.985315-0.075946 61.477973 0.037973 0.31644-51.187342 0.037973-102.387342 0.139234-153.574685V78.426502c-0.417701-20.505315 7.518616-41.086576 21.948282-55.718764C122.892658 9.353968 140.739876 1.480939 159.080742 0m-16.404253 62.857651c-3.126428 4.987095-4.088405 10.974141-3.898541 16.783981 0.037973 292.529839-0.012658 585.072336 0.025315 877.602175 157.97953 0.012658 315.971718 0.012658 473.963906 0-30.530136-54.554265-45.668628-117.627095-42.85864-180.092361 2.379629-57.845241 20.100272-114.918368 50.592435-164.105809 24.517775-39.668925 57.338937-74.097602 95.628183-100.691224-0.025315-145.068776 0.012658-290.124895-0.025315-435.193671 0.506304-13.568949-10.974141-26.846774-24.935476-26.441731-175.560939-0.012658-351.134536 0.012658-526.708134-0.012657-8.797033-0.36707-17.391545 4.582052-21.783733 12.151297z" p-id="9221" fill="#2c2c2c"></path><path d="M259.936514 224.621805c4.366873-1.354363 8.986897-0.974635 13.493004-0.999951h301.200297c9.214734-0.126576 18.151001 5.341508 22.365982 13.505661 4.59471 8.505909 3.632732 19.619283-2.354314 27.188529-4.91115 6.531323-13.100618 10.214685-21.214141 9.92356-102.146848 0-204.293696 0.05063-306.427886-0.025315-11.543733 0.151891-22.37864-8.581854-24.644351-19.89775-3.075797-12.531026 5.164302-26.315155 17.581409-29.694734zM823.339036 254.772213c50.440544-0.025315 100.881088-0.025315 151.321631-0.012658 21.226799 0.139234 42.149815 9.784326 56.11115 25.770878 12.366477 13.948677 19.201582 32.555352 18.986403 51.187342 0 69.338344 0.012658 138.66403-0.012658 208.002373-68.009295-38.453795-151.840593-47.098937-226.381211-23.846922-0.05063-87.033671-0.012658-174.067342-0.025315-261.101013m50.630408 50.630408c0 49.579827 0.012658 99.159654 0 148.752138 41.884005-4.240297 84.540124-0.708826 125.145711 10.455179 0.012658-44.731965 0.063288-89.463931-0.025316-134.195896 0.151891-13.100618-11.328554-24.821557-24.403856-24.998764-33.56796-0.063288-67.148578-0.025315-100.716539-0.012657zM259.885884 434.763313c2.734042-0.835402 5.607318-1.050581 8.467936-1.037924 102.108875 0.025315 204.21775-0.012658 306.326625 0.012658 9.176761-0.088603 18.100371 5.354166 22.302695 13.505661 4.442818 8.240099 3.733993 18.935773-1.79738 26.492361-4.860519 6.961681-13.366428 10.948826-21.809048 10.632386-102.121533-0.025315-204.230408 0.037973-306.351941-0.037973-12.379135 0.240494-23.821607-9.885587-25.062052-22.201434-1.746749-11.910803 6.366774-24.150705 17.923165-27.365735zM863.514265 571.490729c47.035649-8.619827 96.75471-2.025216 139.790556 18.872485 36.833622 17.745958 68.629518 45.693943 91.109419 79.831496 22.669765 34.264129 35.68178 74.819085 37.238665 115.867688 1.594858 39.605637-7.227491 79.641632-25.796193 114.690532-0.734141 1.658146-2.43026 3.37958-1.430309 5.341508 10.493152 38.998072 20.935674 78.008801 31.378195 117.032187-38.998072-10.417206-77.983486-20.897701-116.9689-31.327564-32.175624 18.707936-68.971273 29.416267-106.184623 30.618739-41.959951 1.620173-84.324944-8.733745-120.740865-29.669419-38.719604-21.935624-70.616761-55.592188-90.603115-95.337058-23.32796-46.061014-30.099778-100.197577-19.011718-150.612806 9.404598-44.010482 32.492064-84.907194 65.047417-115.956292 31.833869-30.542794 72.743239-51.503782 116.171471-59.351496m-37.884203 65.528406c-39.491718 19.657256-71.09775 54.592237-86.577998 95.919308-18.404153 48.238121-14.151199 104.551792 11.670309 149.309072 19.480049 34.504623 50.88356 62.034907 87.615921 76.869617 42.137157 17.176366 90.94487 17.04979 133.031397-0.278467 14.151199-5.59466 26.986007-13.860074 40.137256-21.404005 17.581409 4.657998 35.124845 9.417256 52.706254 14.100569-4.746601-17.973795-9.721038-35.896959-14.35372-53.89607 3.455525-6.100964 6.771817-12.265216 10.138739-18.41681 10.632386-19.619283 17.41686-41.289098 19.999011-63.439902 4.733943-39.884104-4.582052-81.33775-26.315154-115.146205-21.644499-34.314759-55.478269-60.743832-94.045983-73.376118-43.643412-14.454981-92.932114-10.986799-134.006032 9.759011zM259.885884 644.879506c2.721384-0.835402 5.59466-1.063239 8.429963-1.037924 79.325192 0.037973 158.650383-0.025315 237.975575 0.025315 9.467886 0.05063 18.505414 6.025019 22.403955 14.619531 3.898541 8.202126 2.860618 18.454784-2.607466 25.707589-4.771916 6.581953-12.847466 10.442522-20.948331 10.277973-78.945464 0.025315-157.878269 0-236.823733 0.012658-8.404648 0.329098-16.872583-3.620074-21.74576-10.518468-5.22759-7.062942-6.265513-16.961187-2.670754-24.973448 2.923906-6.746502 8.936267-12.050037 15.986551-14.113226z" p-id="9222" fill="#2c2c2c"></path><path d="M794.188578 766.632979c14.93597-3.658047 31.492114 5.404796 36.542497 19.89775 4.303585 11.239951 1.379679 24.783585-7.202175 33.226205-8.607169 8.910952-22.657108 11.872831-34.112237 7.151546-13.151248-4.96178-21.74576-19.429419-19.733202-33.352782 1.417651-12.974042 11.758912-24.251965 24.505117-26.922719zM900.53775 766.620321c14.973943-3.645389 31.555402 5.480742 36.555155 20.024327 4.252954 11.214635 1.303733 24.720297-7.265464 33.137602-8.594512 8.872979-22.59382 11.834858-34.036291 7.151545-13.189221-4.949122-21.834363-19.480049-19.771175-33.441385 1.442967-12.948727 11.784227-24.201335 24.517775-26.872089zM1005.608504 766.620321c14.897998-3.620074 31.416168 5.404796 36.491867 19.84712 4.316242 11.239951 1.417651 24.796242-7.151545 33.251521-8.594512 8.923609-22.657108 11.910803-34.124895 7.202175-13.163906-4.949122-21.771075-19.429419-19.758517-33.352781 1.417651-12.9867 11.784227-24.277281 24.54309-26.948035z" p-id="9223" fill="#2c2c2c"></path>
    </g>
  </svg>