<svg xmlns="http://www.w3.org/2000/svg" xmlns:xlink="http://www.w3.org/1999/xlink" viewBox="0 0 1024 1024" width="30" height="30" style="border-color: rgba(0,0,0,0);border-width: bpx;border-style: undefined" filter="none">
    
    <g>
    <path d="M670.207912 515.75438a227.555429 227.555429 0 0 1 251.164305 378.481568l1.023999 1.422221 42.666643 73.955515a28.444429 28.444429 0 0 1-49.26575 28.444428l-42.666643-73.955514-0.739555-1.592888a227.555429 227.555429 0 0 1-202.182999-406.75533z m28.444429 49.265751a170.666572 170.666572 0 1 0 170.666572 295.594502 170.666572 170.666572 0 0 0-170.666572-295.594502zM419.498718 0h5.518219l5.461331 1.023999c21.617766 6.030219 39.708422 13.653326 54.328858 22.92621 25.599986 16.327102 46.079974 35.384869 63.943076 57.969745 5.233775 6.655996 10.126217 13.42577 15.132436 20.878211l7.566218 11.775994c2.958221 4.664886 14.392881 23.495098 17.237324 27.87554 18.318212 28.89954 29.582206 37.205313 54.442636 37.205312 11.207105 0 22.755543-5.518219 35.271092-18.090656l5.347552-5.802664a58.823078 58.823078 0 0 1 92.842615 5.00622l7.395552 10.012439c58.197301 72.419515 95.857725 144.38392 114.744825 219.590989 5.006219 19.9111 8.703995 39.8222 11.263994 60.302188a28.444429 28.444429 0 1 1-56.433747 7.054219 441.798866 441.798866 0 0 0-10.012439-53.475526c-15.359991-61.269299-45.112864-120.718155-91.022171-181.361677l-17.635546-22.641765-5.347553-7.395552c-0.853333-0.739555-2.047999-0.682666-2.844443 0.227556-24.519097 28.216873-52.622193 43.463087-83.569731 43.463087-44.373309 0-70.769738-17.180435-96.540391-54.613303l-5.916441-8.98844c-3.185776-4.949331-14.734214-23.89332-17.351101-28.103095a309.64605 309.64605 0 0 0-19.285323-27.704874 196.551002 196.551002 0 0 0-38.286201-37.31909l-11.548438-7.850663-2.446221-1.47911 0.341333 13.482659c0.512 78.392845-20.309322 138.069257-77.255068 184.319898l-10.410661 8.021329c-23.324431 17.123546-48.81064 26.168874-75.15018 26.168874-36.636424 0-68.664851-18.318212-95.345725-52.337749l-6.826663-9.215994a1.934221 1.934221 0 0 0-2.844443 0c-29.639095 30.264872-50.631083 56.376858-62.975965 77.937734a475.42018 475.42018 0 0 0-46.648863 107.975051C62.634916 468.934851 56.889142 514.27527 56.889142 565.418353a400.611333 400.611333 0 0 0 117.532379 284.159842 398.165112 398.165112 0 0 0 283.135843 117.418601c54.044414 0 106.382163-10.581327 155.761691-31.459538a28.444429 28.444429 0 1 1 22.129765 52.394638 454.655747 454.655747 0 0 1-177.891456 35.953757 454.997081 454.997081 0 0 1-323.356265-134.087036A457.50019 457.50019 0 0 1 0.000284 565.475241c0-56.206191 6.48533-106.723496 19.9111-154.111914a531.910816 531.910816 0 0 1 51.996416-120.718155c15.075547-26.339541 38.968867-56.035524 71.736849-89.486173A58.823078 58.823078 0 0 1 227.555714 200.817666l3.413331 3.754665 3.071998 3.98222c18.033768 25.713763 36.067536 36.977757 55.29597 36.977757 13.767103 0 27.591096-4.835553 41.528865-15.132436 50.631083-36.86398 66.844407-85.333286 64.113743-158.32169l-0.682667-9.95555L391.395623 33.393759A30.947538 30.947538 0 0 1 419.498718 0zM199.111285 497.720612a28.444429 28.444429 0 0 1 28.444429 28.444429 241.777643 241.777643 0 0 0 241.777643 241.777643 28.444429 28.444429 0 1 1 0 56.888858A298.666501 298.666501 0 0 1 170.666856 526.165041a28.444429 28.444429 0 0 1 28.444429-28.444429z" p-id="8388" fill="rgba(16.065,16.065,16.065,1)"></path>
    </g>
  </svg>